<svg version="1.2" xmlns="http://www.w3.org/2000/svg" viewBox="0 0 995 288" width="200" height="58">
	<title>Print_Transparent (4)-svg</title>
	<defs>
		<linearGradient id="g1" x1="326.8" y1="44.7" x2="326.8" y2="323.3" gradientUnits="userSpaceOnUse">
			<stop offset="0" stop-color="#17ead9"/>
			<stop offset="1" stop-color="#6078ea"/>
		</linearGradient>
		<linearGradient id="g2" x1="294.9" y1=".4" x2="294.9" y2="287.8" gradientUnits="userSpaceOnUse">
			<stop offset="0" stop-color="#17ead9"/>
			<stop offset="1" stop-color="#6078ea"/>
		</linearGradient>
	</defs>
	<style>
		.s0 { fill: none } 
		.s1 { fill: url(#g1);stroke: #ffffff;stroke-width: 0 } 
		.s2 { fill: url(#g2) } 
	</style>
	<g id="background-logo">
		<path id="Layer" class="s0" d="m-140-368h1280v1024h-1280z"/>
	</g>
	<g id="text-logo-path-group">
		<g id="Layer">
			<g id="text-logo-path-0">
				<path id="Layer" fill-rule="evenodd" class="s1" d="m326.8 160.3q0-14.5 4.9-26.4 4.9-12 13.1-19.5 8.2-7.6 18.7-11.7 10.4-4.2 21.7-4.2 14.9 0 24.5 5.5 9.5 5.5 14.7 12.8h0.2l-0.2-13.6q0-1.4 0.9-2.3 0.9-0.9 2.3-0.9h9.3q3 0 3 3.2v41.8q0 3-3 3h-11.3q-2.9 0-2.9-3v-4.2q-0.2-8.9-10.2-17-9.8-8.1-24.7-8.1-7.1 0-14.2 2.9-7 3-12.9 8.4-6 5.4-9.6 14.2-3.7 8.7-3.7 19.3 0 10.5 3.6 19.3 3.5 8.8 9.3 14.4 5.8 5.6 13.1 8.5 7.3 3.1 15.1 3.1 7.4 0 14.4-2.2 7-2.2 11.9-5.4 4.9-3.3 8.1-6.2 3.2-3 4.7-5.4 1.6-2.8 4.1-0.8l7.2 6.9q2.4 2 0.7 4.4-1.1 2.1-3.4 4.8-2.3 2.8-7 6.6-4.7 3.9-10.4 6.9-5.6 3.1-14 5.3-8.4 2.2-17.5 2.2-16.7 0-30.4-7.3-13.6-7.3-21.9-21.8-8.2-14.5-8.2-33.5zm132.4 58v-10.6q0-2.9 3.1-2.9h13.6v-88h-13.6q-3.1 0-3.1-3v-10.6q0-3 3.1-3h28.8q3.3 0 3.3 3v30.8h0.7q0.1-0.8 0.5-2 0.5-1.2 2.1-4.8 1.7-3.6 4-6.8 2.3-3.3 6.6-7.2 4.3-3.9 9.5-6.7 5.2-2.9 13-4.8 7.8-2 16.9-2 1.4 0 2.3 0.9 0.9 0.9 0.9 2.4v13q0 1.4-0.9 2.3-0.9 0.9-2.3 0.9h-5.2q-10.7 0-19.7 3.9-9 3.9-14.6 10.3-5.6 6.4-8.8 14.3-3.1 7.7-3.1 15.8v41.3h13.1q3.1 0 3.1 2.9v10.6q0 2.9-3.1 2.9h-47.1q-3.1 0-3.1-2.9zm99.5-58q0-14.5 4.9-26.4 4.9-12 13.1-19.5 8.2-7.6 18.5-11.7 10.4-4.2 21.5-4.2 26.3 0 41 16.4 14 15.7 13.9 42.8 0 1.1 0 2.3 0 3.2-3.5 3.2h-88.5q0.5 10.5 4.2 18.8 3.6 8.3 9.4 13.4 5.9 5.1 12.8 7.7 7 2.7 14.5 2.7 13.9 0 24.6-6.5 10.8-6.5 14.5-12.5 1.8-2.5 4.3-0.7l6.8 6.6q2.5 2.1 0.9 4.4-1.3 2.2-3.6 4.8-2.3 2.7-7 6.6-4.6 3.9-10.2 6.9-5.6 3.1-14 5.3-8.4 2.2-17.5 2.2-16.7 0-30.4-7.3-13.6-7.3-21.9-21.8-8.3-14.5-8.3-33.5zm21.4-12.1h71.1q-0.7-15.3-9.6-24.4-8.9-9.1-24.4-9.1-13.9 0-24.4 8.5-10.5 8.4-12.7 25zm110.8 11.8q0-27.2 15.4-44.4 15.3-17.1 40.2-17.1 15.2 0 25.2 7.1 10.1 7 14.6 17.1h0.2q-0.2-5-0.2-8.2v-53.3h-13.7q-3.3 0-3.3-3v-10.6q0-2.9 3.3-2.9h30.5q2.9 0 2.9 2.9v157.2h13.8q3 0 3 2.9v10.6q0 2.9-3 2.9h-21.4q-5.6 0-8.2-2.4-2.6-2.4-2.6-7.9v-13.8h-0.2q-4 10.3-14.8 18.1-10.8 7.7-26.3 7.7-24.7 0-40-17.1-15.4-17.2-15.4-45.8zm31.1-32.2q-10.9 12.2-10.9 32.5 0 20.2 10.7 32.8 10.7 12.7 27.4 12.7 16.2 0 26.8-12.5 10.5-12.4 10.5-32.8 0-20.8-10.7-32.8-10.8-12-26.6-12-16.4 0-27.2 12.1zm119.4 90.5v-10.6q0-2.9 3.1-2.9h13.6v-88h-13.6q-3.1 0-3.1-3v-10.6q0-3 3.1-3h31q3 0 3 3v101.6h13.1q3.1 0 3.1 2.9v10.6q0 2.9-3.1 2.9h-47.1q-3.1 0-3.1-2.9zm16.8-135q-4.1-4-4.1-9.6 0-5.7 4.1-9.9 4.1-4.2 9.7-4.2 5.7 0 9.8 4.2 4 4.2 4 9.9 0 5.6-4 9.6-4.1 3.9-9.8 3.9-5.6 0-9.7-3.9zm53.6 30.2v-10q0-1.5 0.9-2.4 1-0.9 2.4-0.9h13.8v-24.7q0-1.5 1-2.5 1.1-1 2.5-1h13.8q1.4 0 2.3 1 0.8 1 0.8 2.5v24.7h31.3q1.4 0 2.4 0.9 1 0.9 1 2.4v10q0 1.5-1 2.4-1 0.9-2.4 0.9h-31.3v63.9q0 12.2 5.5 18.5 5.6 6.3 15.7 6.3 3.3 0 6.4-1 3.1-1 4.5-2 1.4-0.9 2.2-1.7 2.5-2.1 4.4 0.3l5.9 7.7q2 2-0.5 4.5-10.8 9.6-24.9 9.6-18.7 0-29.1-10.6-10.5-10.6-10.5-31.2v-64.3h-13.8q-1.4 0-2.4-0.9-0.9-0.9-0.9-2.4z"/>
			</g>
		</g>
	</g>
	<g id="logo-logo">
		<g id="Layer">
			<g id="Layer">
				<path id="Layer" fill-rule="evenodd" class="s2" d="m0.6 125.9l177.2-125.5 95.2 92.2-24.9 7-58.7-44.4-23.7 196.8 89.7-121.2-65.9 19.8 10.6-24.4 82.2-24.7 12.6 12.3-138.2 173.8zm136.9 112.6l-20.5-69.8-66.4-20.2zm19.3-78.1l-23.3 6.9 19.5 86.6zm9.2-113.3l-140.8 78.2 97.8 24.1 35.6-10.7z"/>
			</g>
		</g>
	</g>
</svg>